<svg width="20" height="20" viewBox="0 0 20 20" fill="none" xmlns="http://www.w3.org/2000/svg">
<g clip-path="url(#clip0_517_50)">
<path d="M9.37711 5.92981L7.43966 7.86725C6.72587 8.58104 6.00799 9.29484 5.29828 10.0168C5.13105 10.1881 5.0046 10.4165 4.95566 10.6408C4.69869 11.8196 4.44988 12.9984 4.20107 14.1772L4.06239 14.8298C3.99713 15.148 4.08279 15.4661 4.29896 15.6823C4.4662 15.8495 4.69869 15.9433 4.94342 15.9433C5.01276 15.9433 5.0821 15.9352 5.15144 15.9229L5.86931 15.772C7.01139 15.5314 8.15754 15.2866 9.29961 15.0501C9.56474 14.993 9.78907 14.8747 9.98078 14.683C13.1867 11.4729 16.3927 8.26697 19.5987 5.06509C19.8352 4.82852 19.9658 4.54708 19.9984 4.20038C20.0025 4.14328 19.9984 4.08618 19.9861 4.03315C19.9658 3.95158 19.9494 3.86592 19.929 3.78434C19.8842 3.57632 19.8352 3.33975 19.7373 3.11134C19.1378 1.74085 18.1425 0.761934 16.7802 0.211293C16.5069 0.101164 16.2173 0.064455 15.9644 0.0318244L15.8951 0.0236667C15.528 -0.0212003 15.1935 0.101164 14.9039 0.39484C13.0685 2.23847 11.2207 4.08618 9.37711 5.92981ZM15.7605 1.00666C15.7686 1.00666 15.7727 1.00666 15.7809 1.00666L15.8502 1.01482C16.0623 1.03929 16.2581 1.06377 16.4131 1.12903C17.5225 1.5777 18.3383 2.37715 18.8318 3.5029C18.8889 3.63343 18.9257 3.80066 18.9624 3.97605C18.9746 4.04131 18.9909 4.10657 19.0032 4.17183C18.9868 4.24525 18.9583 4.2942 18.9012 4.34722C15.6911 7.5491 12.4852 10.7591 9.27922 13.9651C9.22619 14.0181 9.17725 14.0426 9.10383 14.0589C7.95768 14.2996 6.8156 14.5402 5.66945 14.7809L5.06578 14.9073L5.17999 14.373C5.4288 13.1983 5.67761 12.0195 5.9305 10.8448C5.93865 10.8081 5.97129 10.751 6.00799 10.7102C6.71771 9.99232 7.42743 9.27852 8.14122 8.56881L10.0787 6.63136C11.9264 4.78366 13.7741 2.93595 15.6177 1.08416C15.6952 1.0189 15.7319 1.00666 15.7605 1.00666Z" fill="#636363"/>
<path d="M1.58666 4.4614H8.7083C8.98566 4.4614 9.20999 4.23706 9.20999 3.9597C9.20999 3.68234 8.98566 3.45801 8.7083 3.45801H1.58666C0.709716 3.45801 0 4.1718 0 5.04467V18.3988C0 19.2757 0.713795 19.9854 1.58666 19.9854H14.9367C15.8136 19.9854 16.5233 19.2716 16.5233 18.3988V11.5667C16.5233 11.2894 16.299 11.065 16.0216 11.065C15.7443 11.065 15.5199 11.2894 15.5199 11.5667V18.3988C15.5199 18.721 15.2548 18.9861 14.9326 18.9861H1.58666C1.26444 18.9861 0.999313 18.721 0.999313 18.3988V5.04875C0.999313 4.72652 1.26444 4.4614 1.58666 4.4614Z" fill="#636363"/>
</g>
<defs>
<clipPath id="clip0_517_50">
<rect width="20" height="20" fill="white"/>
</clipPath>
</defs>
</svg>
