<svg width="24" height="24" viewBox="0 0 24 24" fill="none" xmlns="http://www.w3.org/2000/svg">
<g clip-path="url(#clip0_299_604)">
<path fill-rule="evenodd" clip-rule="evenodd" d="M19.7976 9.23047C20.2363 9.23047 20.5918 9.58608 20.5918 10.0247C20.5918 10.4633 20.2363 10.8189 19.7976 10.8189C19.359 10.8189 19.0034 10.4633 19.0034 10.0247C19.0034 9.58608 19.359 9.23047 19.7976 9.23047Z" fill="black"/>
<path fill-rule="evenodd" clip-rule="evenodd" d="M6.64323 2.19019H17.3568C17.7756 2.19019 18.118 2.5324 18.118 2.95134V5.94632H5.88208V2.95134C5.88208 2.53256 6.22428 2.19019 6.64323 2.19019ZM5.31958 7.07133H18.6805H22.1139C22.5328 7.07133 22.8751 7.4137 22.8751 7.83248V16.9329C22.8751 17.3519 22.5327 17.6941 22.1139 17.6941H19.7394V15.0682C19.7378 14.9387 19.7245 14.8279 19.6939 14.7033H20.6248C20.9354 14.7033 21.1873 14.4515 21.1873 14.1408C21.1873 13.8302 20.9354 13.5783 20.6248 13.5783C14.875 13.5783 9.12516 13.5783 3.37538 13.5783C3.06473 13.5783 2.81288 13.8302 2.81288 14.1408C2.81288 14.4515 3.06473 14.7033 3.37538 14.7033H4.30622C4.27588 14.8236 4.26177 14.9444 4.2606 15.0683V17.6941H1.8862C1.46853 17.6941 1.12505 17.3506 1.12505 16.9329V7.83248C1.12505 7.41354 1.46743 7.07133 1.8862 7.07133H5.31963H5.31958ZM4.75707 2.95134V5.94632H1.88615C0.850397 5.94632 0 6.79567 0 7.83248V16.9329C0 17.9715 0.847573 18.8191 1.88615 18.8191H4.26061V21.4451C4.26061 22.2629 4.93168 22.9351 5.75058 22.9351H18.2495C19.07 22.9351 19.7394 22.2656 19.7394 21.4451V18.8191H22.1139C23.1496 18.8191 24 17.9698 24 16.9329V7.83248C24 6.79672 23.1507 5.94632 22.1139 5.94632H19.243V2.95134C19.243 1.91453 18.3926 1.06519 17.3568 1.06519H6.64321C5.60641 1.06519 4.75706 1.91558 4.75706 2.95134H4.75707ZM5.75059 14.7033H18.2495C18.455 14.7058 18.6121 14.8671 18.6144 15.0683V18.2566V21.4451C18.6144 21.6447 18.4491 21.81 18.2495 21.81H5.75059C5.54945 21.81 5.38563 21.6462 5.38563 21.4451V15.0682C5.38812 14.8598 5.55321 14.7056 5.75059 14.7033V14.7033Z" fill="black"/>
</g>
<defs>
<clipPath id="clip0_299_604">
<rect width="24" height="24" fill="white"/>
</clipPath>
</defs>
</svg>
